name C:\Users\r0593348\3dpredictsim\Results\Batchsim_tmt_linear\Pog_s1_tmt_aCst_d00_k500_ig24.mot
datacolumns 128
datarows 4
range 1.63168195 1.66431559
endheader
time	pelvis_tilt	pelvis_list	pelvis_rotation	pelvis_tx	pelvis_ty	pelvis_tz	hip_flexion_l	hip_adduction_l	hip_rotation_l	hip_flexion_r	hip_adduction_r	hip_rotation_r	knee_angle_l	knee_angle_r	ankle_angle_l	ankle_angle_r	subtalar_angle_l	subtalar_angle_r	tmt_angle_l	tmt_angle_r	mtp_angle_l	mtp_angle_r	lumbar_extension	lumbar_bending	lumbar_rotation	arm_flex_l	arm_add_l	arm_rot_l	arm_flex_r	arm_add_r	arm_rot_r	elbow_flex_l	elbow_flex_r	pro_sup_l	pro_sup_r	glut_med1_l/activation	glut_med2_l/activation	glut_med3_l/activation	glut_min1_l/activation	glut_min2_l/activation	glut_min3_l/activation	semimem_l/activation	semiten_l/activation	bifemlh_l/activation	bifemsh_l/activation	sar_l/activation	add_long_l/activation	add_brev_l/activation	add_mag1_l/activation	add_mag2_l/activation	add_mag3_l/activation	tfl_l/activation	pect_l/activation	grac_l/activation	glut_max1_l/activation	glut_max2_l/activation	glut_max3_l/activation	iliacus_l/activation	psoas_l/activation	quad_fem_l/activation	gem_l/activation	peri_l/activation	rect_fem_l/activation	vas_med_l/activation	vas_int_l/activation	vas_lat_l/activation	med_gas_l/activation	lat_gas_l/activation	soleus_l/activation	tib_post_l/activation	flex_dig_l/activation	flex_hal_l/activation	tib_ant_l/activation	per_brev_l/activation	per_long_l/activation	per_tert_l/activation	ext_dig_l/activation	ext_hal_l/activation	ercspn_l/activation	intobl_l/activation	extobl_l/activation	glut_med1_r/activation	glut_med2_r/activation	glut_med3_r/activation	glut_min1_r/activation	glut_min2_r/activation	glut_min3_r/activation	semimem_r/activation	semiten_r/activation	bifemlh_r/activation	bifemsh_r/activation	sar_r/activation	add_long_r/activation	add_brev_r/activation	add_mag1_r/activation	add_mag2_r/activation	add_mag3_r/activation	tfl_r/activation	pect_r/activation	grac_r/activation	glut_max1_r/activation	glut_max2_r/activation	glut_max3_r/activation	iliacus_r/activation	psoas_r/activation	quad_fem_r/activation	gem_r/activation	peri_r/activation	rect_fem_r/activation	vas_med_r/activation	vas_int_r/activation	vas_lat_r/activation	med_gas_r/activation	lat_gas_r/activation	soleus_r/activation	tib_post_r/activation	flex_dig_r/activation	flex_hal_r/activation	tib_ant_r/activation	per_brev_r/activation	per_long_r/activation	per_tert_r/activation	ext_dig_r/activation	ext_hal_r/activation	ercspn_r/activation	intobl_r/activation	extobl_r/activation	
          1.63168195	         -2.92682656	          2.10560514	         -5.82113560	          2.03960244	          0.85766887	          0.00247308	         31.72513302	          3.10401899	         -2.12284490	        -17.77813933	         -1.73740481	          7.79820178	        -15.65401223	         -8.83766578	          6.33842893	         -0.37662977	         -2.16039026	         12.24680602	          0.07606567	          1.96844219	         -0.08901876	         21.58928019	         -2.00720719	         -0.68329644	          1.89748343	         -8.97402685	        -13.56302906	          6.90790390	          6.80947823	        -13.46782982	         17.13789902	         15.19105189	         37.57716373	         86.51662706	         86.51662706	          0.05906489	          0.05906490	          0.05000002	          0.05906492	          0.05906491	          0.05906487	          0.05906491	          0.05906489	          0.19385394	          0.05002720	          0.05000006	          0.14760454	          0.32780218	          0.10296900	          0.16322129	          0.10265275	          0.05000005	          0.08060543	          0.13834179	          0.05000007	          0.05000005	          0.05000021	          0.06221644	          0.05735030	          0.47552493	          0.26806919	          0.12723571	          0.05242085	          0.15397146	          0.16196054	          0.13542721	          0.06238429	          0.06131440	          0.06129482	          0.05000000	          0.05000013	          0.05000021	          0.55644974	          0.34189350	          0.19206808	          0.31257728	          0.55615247	          0.30292979	          0.05906489	          0.09399850	          0.09543026	          0.29391614	          0.10038386	          0.06128069	          0.30349647	          0.21544900	          0.10379708	          0.05000085	          0.05000007	          0.05000004	          0.06977421	          0.10456382	          0.10076617	          0.15508769	          0.05000061	          0.05000103	          0.05000040	          0.30442552	          0.06078537	          0.05000026	          0.05000026	          0.05000021	          0.05000023	          0.32015296	          0.52913796	          0.05000003	          0.05000011	          0.05000004	          0.17955959	          0.09456796	          0.05192396	          0.09709231	          0.28093299	          0.37716715	          0.26805272	          0.23647116	          0.26327104	          0.32759878	          0.05000000	          0.05906912	          0.15387573	          0.05000002	          0.05000000	          0.05000002	          0.05000000	          0.05000014	          0.06810030	
          1.64255983	         -2.91842735	          2.22236895	         -6.07458001	          2.05614513	          0.85660847	          0.00225441	         31.05209788	          3.53386814	         -1.88070071	        -17.44901534	         -2.03843623	          7.55640514	        -15.91278967	        -11.11846993	          5.64807524	         -1.31949223	         -2.63829688	         13.25926629	          0.02335723	          1.85272195	         -0.07066859	         22.62711612	         -1.80585582	         -0.93612322	          1.97323304	        -10.00524808	        -13.56052440	          6.73454968	          6.54888486	        -13.48799894	         17.33380244	         15.06420034	         38.70661876	         86.51662706	         86.51662706	          0.05000000	          0.05000001	          0.10413691	          0.05000002	          0.05000002	          0.05000001	          0.05000002	          0.05000002	          0.16410250	          0.05000000	          0.05000043	          0.12495118	          0.28748770	          0.38359565	          0.24388610	          0.10771481	          0.05000010	          0.08241275	          0.11990340	          0.06242702	          0.09885247	          0.11689039	          0.05266788	          0.06814671	          0.59855525	          0.22692767	          0.10770841	          0.06977319	          0.21192086	          0.22275999	          0.18444472	          0.05906500	          0.05906514	          0.05188769	          0.05906488	          0.06977326	          0.06977315	          0.53082888	          0.40639564	          0.23374989	          0.29815748	          0.54949154	          0.25643810	          0.05000000	          0.07957222	          0.08078425	          0.24880780	          0.08497760	          0.05906489	          0.25691781	          0.18238329	          0.08786699	          0.05000077	          0.05000014	          0.05000071	          0.05906572	          0.08851608	          0.20709620	          0.22599999	          0.17893939	          0.05906521	          0.05906517	          0.25770429	          0.05145661	          0.05000199	          0.05906403	          0.05906483	          0.05906493	          0.27101796	          0.48470349	          0.05906490	          0.05906495	          0.05601316	          0.15200195	          0.13587094	          0.13587098	          0.13587092	          0.23781721	          0.31928197	          0.22691372	          0.20017911	          0.22286595	          0.27732106	          0.05000000	          0.05000358	          0.13025993	          0.05000001	          0.05000000	          0.05000002	          0.06786524	          0.06638388	          0.05764876	
          1.65343771	         -2.90553799	          2.34072975	         -6.29745464	          2.07292841	          0.85546622	          0.00205485	         30.16399257	          3.87246985	         -1.59976935	        -17.03361291	         -2.32365308	          7.29733427	        -16.25636813	        -13.54394346	          5.20323347	         -2.39629394	         -3.13270919	         14.18432701	         -0.02434656	          1.68371055	         -0.18986121	         23.45430953	         -1.58660676	         -1.19459939	          2.03879085	        -11.02656829	        -13.56542346	          6.63236226	          6.20436900	        -13.50998670	         17.44997648	         14.93719469	         39.82051076	         86.51662706	         86.51662706	          0.28535943	          0.29377418	          0.34551170	          0.44251885	          0.25896994	          0.21061200	          0.07930789	          0.09228890	          0.14310499	          0.08242341	          0.05906496	          0.10577449	          0.24336595	          0.32472388	          0.20645607	          0.11535515	          0.05000007	          0.06976493	          0.10150164	          0.17642007	          0.14929721	          0.09895084	          0.05000026	          0.05768801	          0.50669286	          0.19210031	          0.24858617	          0.05906485	          0.17939663	          0.18857225	          0.15613735	          0.05000012	          0.05000025	          0.05538574	          0.05000001	          0.05906495	          0.05906488	          0.60247640	          0.40939201	          0.19974053	          0.59316317	          0.61769072	          0.31547133	          0.06729209	          0.09736610	          0.06838600	          0.34039882	          0.07193579	          0.05000000	          0.39423277	          0.15439231	          0.07438174	          0.06598332	          0.05000003	          0.05000002	          0.05000070	          0.08066092	          0.17531243	          0.19131500	          0.15147694	          0.05000032	          0.05000026	          0.26698387	          0.08245173	          0.05000012	          0.05000016	          0.05000011	          0.05000008	          0.22942391	          0.44572348	          0.05000001	          0.05000009	          0.05000002	          0.12867368	          0.11501835	          0.11501839	          0.11501834	          0.20131856	          0.27028064	          0.19208846	          0.16945692	          0.18866195	          0.23475964	          0.08156518	          0.12791139	          0.16819679	          0.05000010	          0.16008937	          0.05000016	          0.07791911	          0.05619571	          0.05000001	
          1.66431559	         -2.89011823	          2.44703239	         -6.48260473	          2.08972292	          0.85427576	          0.00182982	         29.18077845	          4.18435621	         -1.31981641	        -16.50760844	         -2.58224762	          7.03667678	        -16.52028358	        -16.13273926	          4.92534568	         -3.48895912	         -3.65551211	         15.03519062	         -0.04079464	          1.40635271	         -0.18603444	         23.84614694	         -1.37235617	         -1.44272547	          2.09313899	        -11.98431140	        -13.57082781	          6.60915228	          5.81930055	        -13.54138249	         17.51564310	         14.77718782	         40.88797591	         86.51662706	         86.51662706	          0.40924732	          0.43894373	          0.48181585	          0.37461242	          0.26470200	          0.41320253	          0.07738843	          0.11765288	          0.12114218	          0.06977362	          0.05000013	          0.08954091	          0.20601574	          0.27488742	          0.23402527	          0.16402695	          0.05000005	          0.05906471	          0.11504463	          0.26302966	          0.19839041	          0.15621389	          0.05000005	          0.05000003	          0.42892892	          0.16261801	          0.26475762	          0.05000000	          0.21549204	          0.25418186	          0.19425105	          0.05000000	          0.05000000	          0.05000000	          0.05000000	          0.05000007	          0.05000003	          0.69461314	          0.34656118	          0.16908565	          0.67956512	          0.63563084	          0.43010324	          0.09055197	          0.08242298	          0.05789056	          0.28815661	          0.06089556	          0.05000003	          0.33372848	          0.13069719	          0.06296613	          0.09068114	          0.05000006	          0.05000009	          0.05000001	          0.06828164	          0.18917218	          0.20242038	          0.17495298	          0.05031340	          0.13352967	          0.22600898	          0.06979766	          0.05000012	          0.05000107	          0.05000083	          0.05000074	          0.19421341	          0.37884479	          0.05000007	          0.05000023	          0.05000004	          0.10892568	          0.09736611	          0.09736613	          0.09736609	          0.17042149	          0.22879971	          0.16260797	          0.14344978	          0.15970736	          0.19873027	          0.18556987	          0.12735209	          0.14238323	          0.27212809	          0.24457989	          0.13021799	          0.10901936	          0.05000000	          0.05000000	
